/* XPM */
static char *b544ea90f3c34187941f31a0931be8e0M63IGquYQmkWXNSC[] = {
/* columns rows colors chars-per-pixel */
"50 50 165 2 ",
"   c None",
".  c #FF4D2F",
"X  c #FF552F",
"o  c #FF582E",
"O  c #FF4D30",
"+  c #FF5436",
"@  c #FF5538",
"#  c #FF652D",
"$  c #FF6C2D",
"%  c #FF742D",
"&  c #FF7534",
"*  c #FF733F",
"=  c #FF6044",
"-  c #FF6F43",
";  c #FF6248",
":  c #FF7E43",
">  c #FF6D52",
",  c #FF7255",
"<  c #FF7D57",
"1  c #FF735A",
"2  c #FF7C58",
"3  c #FF8F22",
"4  c #FF862C",
"5  c #FF8A2A",
"6  c #FF9327",
"7  c #FF9827",
"8  c #FF9628",
"9  c #FF9B29",
"0  c #FF9C32",
"q  c #FF9E38",
"w  c #FFA32A",
"e  c #FFAA2B",
"r  c #FFB32E",
"t  c #FFB92F",
"y  c #FFA733",
"u  c #FFAA32",
"i  c #FFA33A",
"p  c #FFAB3C",
"a  c #FFB133",
"s  c #FFBC31",
"d  c #FFB43E",
"f  c #FFBB3D",
"g  c #FFC634",
"h  c #FFCB35",
"j  c #FFC43C",
"k  c #FFCE3B",
"l  c #FFD036",
"z  c #FFD33A",
"x  c #FFD93F",
"c  c #FF9E47",
"v  c #FF8456",
"b  c #FF8B56",
"n  c #FF8458",
"m  c #FF8D58",
"M  c #FF9256",
"N  c #FF9B56",
"B  c #FFB44D",
"V  c #FFBB4F",
"C  c #FFA455",
"Z  c #FFAC55",
"A  c #FFB553",
"S  c #FFBB52",
"D  c #FFB358",
"F  c #FFBA5C",
"G  c #FFBD65",
"H  c #FFC247",
"J  c #FECE45",
"K  c #FFC44B",
"L  c #FFCC4B",
"P  c #FFD343",
"I  c #FFDB42",
"U  c #FFD44B",
"Y  c #FFDA4C",
"T  c #FFC353",
"R  c #FFCB55",
"E  c #FFCC58",
"W  c #FFD556",
"Q  c #FFD957",
"!  c #FFD559",
"~  c #FFDC58",
"^  c #FFE246",
"/  c #FFE44B",
"(  c #FFE254",
")  c #FFED54",
"_  c #FFE35B",
"`  c #FFED5E",
"'  c #FFF35E",
"]  c #FFFB5E",
"[  c #FFC363",
"{  c #FFC76C",
"}  c #FFCA6C",
"|  c #FFD562",
" . c #FFDB64",
".. c #FFD169",
"X. c #FEDA6B",
"o. c #FFC771",
"O. c #FFC976",
"+. c #FFCE7C",
"@. c #FEDA72",
"#. c #FFE561",
"$. c #FFEB62",
"%. c #FFE66C",
"&. c #FEEC6C",
"*. c #FFF462",
"=. c #FFFC63",
"-. c #FEF46D",
";. c #FEEC74",
":. c #FEE07F",
">. c #FEF576",
",. c #FEF37C",
"<. c #FFCF82",
"1. c #FFD583",
"2. c #FEDE82",
"3. c #FFD48B",
"4. c #FFDB8D",
"5. c #FFD695",
"6. c #FFDB92",
"7. c #FEE481",
"8. c #FEE880",
"9. c #FFE28E",
"0. c #FFEA8B",
"q. c #FEF381",
"w. c #FFE393",
"e. c #FEEF90",
"r. c #FFE59E",
"t. c #FEF69C",
"y. c #FFDBA2",
"u. c #FEE7A1",
"i. c #FFE9A0",
"p. c #FEEDAA",
"a. c #FFEAA9",
"s. c #FEF5A0",
"d. c #FEF6A6",
"f. c #FEF6A6",
"g. c #FEF7AC",
"h. c #FFE3B2",
"j. c #FFE6B8",
"k. c #FFE8BB",
"l. c #FFF3B7",
"z. c #FFF6BC",
"x. c #FFF8B9",
"c. c #FFE9C1",
"v. c #FFECC7",
"b. c #FEF5C2",
"n. c #FEF1C4",
"m. c #FEF5C5",
"M. c #FEF8C7",
"N. c #FFFCC7",
"B. c #FEF4CA",
"V. c #FFF0CD",
"C. c #FFFFCE",
"Z. c #FFF2D3",
"A. c #FEF7D0",
"S. c #FFF3D7",
"D. c #FEF4D5",
"F. c #FFFFD2",
"G. c #FEF5DA",
"H. c #FFF3DC",
"J. c #FFF5DC",
"K. c #FFF7E3",
"L. c #FEFAE3",
"P. c #FFF9EC",
"I. c #FFFDF1",
"U. c #FFFCF4",
"Y. c #FFFFFA",
/* pixels */
"                                                                                                    ",
"                                                                                                    ",
"                                                                                                    ",
"                                        U.L.A.M.b.b.b.B.J.P.                                        ",
"                                    M.s.q.-.*.*.*.*.' ` $.&.8.p.J.                                  ",
"                                f.>.*.` $.;. .X.7.E R R R W Q Q ~ 8.n.                              ",
"                            d.-.' $.X.T [ D.5.[ 3.A B A B A B S T L U 8.D.                          ",
"                          ,.' %.r.V.H.y.S O.[ A B A S A S V A S A R / x Q p.                        ",
"                        *.#.w.        D.F B V S S S S S V A V A S $.*.Y x I 7.                      ",
"                      *. .          Y.h.S S S S S S S S S S S V E =.=.) x x z X.                    ",
"                    ` |           Y.J.{ S T T T T T T T T S S S ~ =.=.' I x z h @.                  ",
"                  $.R           Y.K.+.S T T T R N A R R T T T S ~ =.=.=./ I z l l 2.                ",
"                &.W A           J.+.S T T R W F 1 n R ! R R T T ! =.=.=.) x z z z z                 ",
"                Q A S c.    I.k.{ K T R R R R M 1 1 N T T R W _ R ` =.=.' I z l l l U               ",
"              #.S V B <.v.k.1.T K T R R R v 2 1 1 1 1 1 v T Q ` R Q ] =.] ^ x z z a s 2.            ",
"            q.R S A S A S S S T T R R R Q D 2 1 1 1 1 n T W W R R R R _ ' ^ z g r 7 w J             ",
"            _ S B A S S S T T T R R R W Q ~ N 1 1 1 1 M ~ Q W R R R T T R d y 7 6 5 7 r 9.          ",
"          t.Q A S V S S T T T R R R R W Q ~ M 1 n m 1 v Q Q Q R W R R R T u 9 7 6 6 6 w Q           ",
"          ;.T S S S S T T T R R R R W Q ! Q Z C ! Q F Z W W W W W R W R K u 9 9 6 6 6 7 j           ",
"          #.T A S S S T R R A R W W W W ! Q Q Q ~ ~ ~ ~ Q Q W W W Q R R K u 9 9 7 6 6 6 a u.        ",
"        z._ T S S S T R R D 2 Z Q Q Q Q W Q Q Q ! Q Q W W Q W Q Q W m Z K e w 9 7 6 6 5 e 7.        ",
"        g.~ S S S T R R ! m 1 v R Q Q Q W W W Q Q W Q Q Q W Q Q _ D , v d e w 9 8 6 6 6 w X.        ",
"        f.~ S S S T S N M 2 1 1 n M Z ! Q W W W Q W Q W Q Q ! R S n 1 > & 4 5 9 9 8 8 6 w  .        ",
"        t.Q S S S R A < 1 1 1 1 1 2 A ! W W W W W W W Q ! Q R v 1 1 1 = . . # 9 9 7 8 5 w !         ",
"        t.~ S S T R R S 2 1 1 1 1 D ~ Q Q W W Q W W Q W Q Q ! S v 1 , @ O $ 9 w 9 7 0 0 e  .        ",
"        f._ S S S T R T 2 1 1 1 1 C ~ Q Q W Q Q W W Q ! Q Q ~ ~ M 1 ; O O $ w 9 7 0 r.<.r X.        ",
"        l._ S S S T R T n m S D v C Q Q W ! Q Q Q Q Q ! ! Q Q Q b > % % X # 9 9 6 F C.6.s @.        ",
"          ` T A V T T T S E ! Q R W Q ! Q Q ~ ~ A S ~ Q Q ! Q Q A i r e 7 4 w 9 7 4.F.1.h u.        ",
"          ;.R S S T T R R R W W Q Q W Q Q ~ _ ! n 2 W ~ Q Q W R j r e e w w 9 7 c l.C...z           ",
"          e.Q S S S T T R R R W W W W Q ~ ~ ~ D 1 1 C W ! Q W f e e e w w w 9 6 +.C.l.J !           ",
"            _ T S S S T T R R R R W W Q Q C n 2 1 1 1 < v V f e e w w w 9 9 7 Z z.C.9.h w.          ",
"            ;.Q S S S S R K R R R R W Q Q D 2 1 1 1 1 2 c r e w w w 9 w 9 7 9 4.F.l.L U             ",
"              ( R A S S T T T R R R W W Q ~ Z 1 1 1 > - u e e w w w 9 9 7 7 8 o.u.[ g               ",
"                Q S S S S T T T R R R W Q ~ C 1 , - + o w e w w 9 9 9 7 7 7 0 o.i t Q               ",
"                _ W S S V S T T T T R R W Q C : 0 w 4 % 9 w w 9 9 9 9 7 8 i 6 0 e z                 ",
"                  ( R A S S S T T R T R K d e w e e w w w w 9 9 9 9 7 6 0 D 6 w h                   ",
"                    Y T S S S S V B d w w w w w w w w 9 9 9 9 7 7 7 6 6 6 5 w g                     ",
"                      P f p p i 0 7 7 7 7 9 w 9 9 w 9 9 9 9 8 6 6 6 6 6 6 w g                       ",
"                        P t 9 6 6 i B y 6 7 6 7 7 7 8 8 7 6 6 6 6 6 6 7 e k                         ",
"                          ! g r 9 +.m.a.O.0 6 0 i 7 6 6 6 6 6 6 5 6 9 t J                           ",
"                              U h R x.F.F.G 3 F 6.q 3 6 6 6 6 6 w r j                               ",
"                                  Y Q 0.0.H e u p y w w w e r g                                     ",
"                                          P z k h h h k J                                           ",
"                                                                                                    ",
"                                                                                                    ",
"                                                                                                    ",
"                                                                                                    ",
"                                                                                                    ",
"                                                                                                    ",
"                                                                                                    "
};
