/* XPM */
static char *_78c8566054a46bab986c62a13ccb68dEHUI7halaVJe3VkQ[] = {
/* columns rows colors chars-per-pixel */
"50 50 15 1 ",
"  c #040A08",
". c #050B09",
"X c #030C09",
"o c #040D08",
"O c #050E09",
"+ c #040D0A",
"@ c #060C0A",
"# c #070D0B",
"$ c #050E0B",
"% c #060F0A",
"& c #060F0C",
"* c #080E0C",
"= c #090F0D",
"- c #07100D",
"; c #08110E",
/* pixels */
"&$X$$$XX.#.#.#.###...#.#.#.#.#.##..##**#$XXX$X$$$&",
"&$$X$$$X#.#.#.#.#...#.#.#.#.#.#.....#**#$.X$$$$$&&",
"$$X$$$X$.#.#.#.###...#.#.#.#.#.##..##**#X$$&&&$$&&",
"$$$X$$$X#.#.#.#.#...#.#.#.#.#.#.....#**#$$&--&$$&&",
"$X$X$$$$.#.#.#.##....#.#.#.#.#.##..##**#X$&---&$--",
"$$X$$$$X#.#.#.#.##..#.#.#.#.#.#.....#**#$$&$-&&$--",
"$XXX$&$$.#.#.#.###...#.#.#.#.#.##..##**#$$$$$&&&&&",
"X$X$$&$$#.#.#.#.#...#.#.#.#.#.#.....#**#$$X$$$$&$$",
"$X$X$$$X...#.#.#.....#.#.#.#.#.#.#.#####$XX$X-$-$&",
"$$X$$$$$.$#.#.##......###.#.#.#...######X$X$&$-$&&",
"$X$X$$$X.#.#.#.#......##.#.#.#.#.#.#####$XX-$-$-&&",
"$$X$$$$$..#.#.##.....#.##.#.#.#...######X$X$$$-$&&",
"$$$X$$$X...#.###.....#.#.#.#.#.#.#.#####$X$&$-$-&&",
"$XX$$$$$.##.#..#......###.#.#.#...######X$X$$$-$&&",
"$X$X$$$X.#.#.#.#.....#.#.#.#.#.#.#.#####X$X-&---&&",
"$$X$$$$$..#.#.##......###.#.#.#...####$&$XX$X-$---",
"$X$X$$$X*.....#.##..#.#.#.#.#.#.XX-X&$$X&$$$$--;-$",
"$$X$$$$$##...#..#....#.#.#.#.#.#$X$--$X$$$$$---;$$",
"$$$X$$$X#....#........#.#.#.#.#.X$X-$&XX$$$$-$--o ",
"$XX$$$$$##....#...  .#...#.#.#.#X$&$-X&X$$$$$---oo",
"$X$X$$$X##....#.#......##.#.#.#.X-$--X&$$$$$$-$-X$",
"$$X$$$$.#....#.......##*.#.#.#.#X$-$--$X$$$-&X-$-$",
"$X$X$$$$##....#.*#..****#.#.#.#.X&$-$-$X$$$X$$--$-",
"$$X$$$$$#....#..#..##***.#.#.#.#&X---$$$$$$X$$X-$$",
"$$$$$$$$... ..#.##..#**##.....#.$$$$$$$$XXX$$$----",
"$$$$$$$$#....#.##...#**#.#.....#$$$$$$$$X$X$$-$-$$",
"$$$$$$$$....#.#.#...#**##.#...#.$$$$$$$$X$X-$-$-$$",
"$$$$$$$$*....#.###..#**#.#...#.#$$$$$$$$$XX$$$-$-$",
"$X$X$X$X#....#.###..#**###.##.##$$$$$$$$X$X-$-$-XX",
"X$X$X$X$*##.###.#...#**##.#..#.#$$$$$$$$$X$$$$-$-$",
"$X$X$X$X*##..*.###..#**###.#.#*#$$$$$$$$$$$$$$$$--",
"X$X$X$X$**.#.##.#...#**####.#.##$$$$$$$$$$$$$$$$$$",
"$X$X$X$X$.#..####...###.#.#..###$$$$$$$$.*#####*$-",
"X$X$X$X$#...#.##....##*..#..#.##$$$$$$$$.######*--",
"$X$X$X$X.#...####...#####.#..###$$$$$$$$#######*$$",
"X$X$X$X$#.#.#.##....###..#..#.##$$$$$$$$.*#####*$$",
"$X$X$X$X.#...####...##*.#...#.##$$$$$$$$.######*$$",
"X$X$X$X$#.#.#.##....####.##..###$$$$$$$$#######*$o",
"$X$X$X$X.##..####...###.#.#.#.*#$$$$$$$$.*#####*#-",
"X$X$X$X$#...#.##....##*..#...###$$$$$$$$.######*--",
".#.#.#.#.#.#.#.#.....#.#.#.#.#.#$$$$$$$$#######*@@",
"..#.#.###.#.#.#... ..#*...#.#.##$$$$$$$$.######*##",
"...#.###.#.#.#.#...#**##...#.###$$$$$$$$#######*##",
".##.#..##.#.#.#.#...#**#.##.#..#$$$$$$$$.*#####*@@",
".#.#.#.#.#.#.#.#.#.##**#.#.#.#.#$$$$$$$$.######*#@",
"..#.#.###.#.#.#.....#*#*..#.#.##$$$$$$$$#######*##",
".#.#.#.#.#.#.#.#.....*#..#.#.#.#$$$$$$$$.*#####*#-",
"..#.#.###.#.#.#.. ...##...#.#.##$$$$$$$&.######*##",
".....#.*#.#.#.#... ..##..#.####.$$&&&$$.o$oo%o%%o%",
".......#.#.#.#.#.. ..*###.#.##..$$&&&$XXo$o$o%o-%o"
};
