/* XPM */
static char *_919cb0ff854431ab113b82bdc85e8c6HI5LqzKVg87N1V5D[] = {
/* columns rows colors chars-per-pixel */
"50 50 133 2 ",
"   c None",
".  c #4C1302",
"X  c #541603",
"o  c #6D2007",
"O  c #6D230C",
"+  c #71260D",
"@  c #74290D",
"#  c #7B2E0E",
"$  c #7E300C",
"%  c #6A2615",
"&  c #6E2917",
"*  c #6C2B1A",
"=  c #752A11",
"-  c #7A2E15",
";  c #722B19",
":  c #7E3212",
">  c #73331F",
",  c #7C321A",
"<  c #663326",
"1  c #643428",
"2  c #69372A",
"3  c #67382B",
"4  c #744536",
"5  c #7C4635",
"6  c #82350F",
"7  c #843513",
"8  c #863912",
"9  c #893C11",
"0  c #83361D",
"q  c #86381F",
"w  c #8C3D1D",
"e  c #913F12",
"r  c #832E22",
"t  c #873622",
"y  c #8C3625",
"u  c #863C23",
"i  c #8C3D24",
"p  c #8A3628",
"a  c #8E392A",
"s  c #903F22",
"d  c #933D2D",
"f  c #923F30",
"g  c #964612",
"h  c #984812",
"j  c #97461C",
"k  c #98471E",
"l  c #9B4C1C",
"z  c #8E4226",
"x  c #84402A",
"c  c #8C4328",
"v  c #934222",
"b  c #9A4B24",
"n  c #93422B",
"m  c #914829",
"M  c #9A4A2C",
"N  c #824431",
"B  c #804836",
"V  c #864D3B",
"C  c #964131",
"Z  c #9B4534",
"A  c #9C4A32",
"S  c #9C4A39",
"D  c #A14E2F",
"F  c #A14E33",
"G  c #A44D3B",
"H  c #A65136",
"J  c #A5513E",
"K  c #AA543A",
"L  c #B2593D",
"P  c #9A5246",
"I  c #965842",
"U  c #9E564A",
"Y  c #A25B4E",
"T  c #A15A4C",
"R  c #A45B4E",
"E  c #A25C4D",
"W  c #A25C4E",
"Q  c #A35C4E",
"!  c #A45D4F",
"~  c #A15A4D",
"^  c #B85D40",
"/  c #A55F51",
"(  c #A65F51",
")  c #A55E51",
"_  c #A66945",
"`  c #A86C48",
"'  c #A96F4E",
"]  c #A66051",
"[  c #A76152",
"{  c #A76052",
"}  c #A86153",
"|  c #A96354",
" . c #AC6557",
".. c #AB6556",
"X. c #AD6758",
"o. c #A96C5D",
"O. c #B06657",
"+. c #B26B5C",
"@. c #AB766A",
"#. c #B47568",
"$. c #A97D72",
"%. c #AC8579",
"&. c #AC8679",
"*. c #AD877B",
"=. c #AC867A",
"-. c #AF897D",
";. c #B38C7A",
":. c #B28C80",
">. c #B48D81",
",. c #B69084",
"<. c #B69084",
"1. c #C59D95",
"2. c #C79F96",
"3. c #CEA69D",
"4. c #D4C5BF",
"5. c #D5C6C0",
"6. c #D7CBC7",
"7. c #DBD0CA",
"8. c #DFD0CA",
"9. c #E2D6D0",
"0. c #E5D6D0",
"q. c #E4DDDB",
"w. c #E4DDDC",
"e. c #E7E0DE",
"r. c #EAE3E2",
"t. c #EBE4E2",
"y. c gray93",
"u. c #F2EBE9",
"i. c #F7F0EE",
"p. c #F7F0EF",
"a. c #EFF0F0",
"s. c #F5F8F8",
"d. c #FEFFFF",
/* pixels */
"                                                                                                    ",
"                                                                                                    ",
"                                                                                                    ",
"                                                                                                    ",
"                                                                                                    ",
"                    R T R         Q Q R ( } } ( } } } } ..} Q Q R R Y Y T T P P                     ",
"                  C d a y y a a d d C n d d C n d C d d d d d d d s a a y d d a R                   ",
"                  d Z C d f f f C Z Z Z S Z Z Z Z Z Z S Z Z Z S Z Z Z Z S C d d P                   ",
"                  d C Z , > @.1.2.3.3.          o.0 t y w s s s n j i y 0 t d Z P                   ",
"                  f C S % . V 6.s.d.            >.+ @ 7 e g h h h h e @ + t Z Z P                   ",
"                  C C S % . O I 9.a.y.          *.+ + q n b D b M b v @ + t Z Z P                   ",
"                  Z Z S 1 . O $ _ 7.            %.+ + s H Z D Z A H A = + t Z Z T                   ",
"                  S Z Z 1 . O : j `             %.@ : z K F M A M H A = + y F d T                   ",
"                  S S S 1 . o 0 F k '           ;.@ 7 i K F Z M A H A = + y f F T e.                ",
"                  S S Z 1 . O 0 F A v           ,.# 8 z K H M M A F M 7 @ t Z S Y q.                ",
"                  G G S * . & w F A M u         <.# 8 z K H A A F F F 7 # t Z S Y q.                ",
"                  G G F % . @ w F A A z         >.$ 9 z K F M b M H M 7 $ t Z S Q t.                ",
"                  G G S % . @ w F A A c         &.$ 9 i K F b l M H F 8 $ t Z S  .i.                ",
"                  T K S & . @ w H b H m         &.$ 9 z K F b k M K F 8 - u Z G +.i.                ",
"                  G J S ; . @ w H b M m         &.$ 9 z L H M M A K F 8 $ t Z G +.i.                ",
"                  J J S & X + w H M A m         >.$ 9 v K A A H F H M 8 # t Z G +.w.                ",
"                  J U F & . @ w A A D m 4.      ,.$ 9 q z i i z i z t 8 # t Z G +.w.                ",
"                  U G F & X @ 7 , q z z 5.      ,.$ 9 + + + % + + + + 6 # t Z G +.w.                ",
"                  G G G & X @ - = = @ z 8.      -.$ 9 - 0 0 0 0 0 0 , 6 - t Z G +.u.                ",
"                  J K G + X + 7 M 5 x x 0.      &.$ 9 0 A 4 5 5 B K n $ @ t Z G +.p.                ",
"                  J U F ; X + 6 0 > , z 0.      &.$ 8 - q , < > , u 0 # @ t Z G +.i.                ",
"                  P J F ; X O # = : 7 z 8.      -.$ 9 = @ @ @ @ + = = = = t Z G +.u.                ",
"                  G J S ; X O r A A A c 5.      ,.$ 9 0 M n n n n n z - @ u Z G  .w.                ",
"                  S J S ; X O q K A A m 4.      ;.$ 9 z G A A A A L A : + t Z G  .w.                ",
"                  S G G ; X O 0 K M M c 5.      <.$ 8 q K M M A A L M - + u Z G ..                  ",
"                  Z G F - X O 0 K A A m         *.$ 9 z K A M Z F L M - + t Z G X.                  ",
"                  C G S ; X O q H H A c         &.$ 9 c K A Z M H L A - O t Z G X.                  ",
"                  f G Z ; X O t H H M x         &.# 8 i H H M M K K M ; O t Z G X.                  ",
"                  d G F ; X O 0 K b M z         >.# 6 i K D A A K K A : + t Z G  .                  ",
"                  d Z S 2 X O t H b F i         <.@ $ i K H D D H K A - + t Z G }                   ",
"                  d C S 2 . O 0 H M A           <.@ # i H H b l A K A - + u Z G (                   ",
"                  d C S 2 X O t H A q           ;.+ @ i K H b j A K A - O u Z G (                   ",
"                  y C S 3 . O 0 F 0             %.+ + i L A b b M L A - O u Z G (                   ",
"                  t d G 2 . O , 0               %.o + i L A M M M L A - + t Z G Y                   ",
"                  r C S * . O +                 &.+ + i L F A H A K A - + t Z F Y                   ",
"                  t f G % . o                   >.O @ 0 n n z n v n i - + t C G U                   ",
"                  r d S % .                       o + @ # @ @ + + + + + O t Z G T                   ",
"                  r f G $.                          ;.;.;.;.                S G U                   ",
"                  r d #.                                                      F T                   ",
"                  p S                                                         O.)                   ",
"                                                                                                    ",
"                                                                                                    ",
"                                                                                                    ",
"                                                                                                    ",
"                                                                                                    "
};
