/* XPM */
static char *_c2f854d979b4024bd62963b4494957e4xTRHLQ8nElBM3jo[] = {
/* columns rows colors chars-per-pixel */
"50 50 44 1 ",
"  c #000000",
". c #0B0000",
"X c #130000",
"o c #1B0000",
"O c #220000",
"+ c #2B0000",
"@ c #340000",
"# c #3C0000",
"$ c #440000",
"% c #4C0000",
"& c #530000",
"* c #5C0000",
"= c #640100",
"- c #6B0100",
"; c #740100",
": c #7B0100",
"> c #830100",
", c #8B0100",
"< c #940100",
"1 c #9C0100",
"2 c #930A04",
"3 c #9E0B03",
"4 c #A40100",
"5 c #AD0200",
"6 c #A20A05",
"7 c #AB0B04",
"8 c #A70D08",
"9 c #B40200",
"0 c #BB0200",
"q c #B30C05",
"w c #B31205",
"e c #B91009",
"r c #C30100",
"t c #CC0100",
"y c #C30C03",
"u c #CC0B05",
"i c #D40100",
"p c #DB0100",
"a c #D50A04",
"s c #DB0903",
"d c #CA1509",
"f c #E20100",
"g c #E90602",
"h c #E20903",
/* pixels */
"                                                  ",
"                                                  ",
"                        o$#+                      ",
"                      o#:->>@X                    ",
"                     O;**-:1:*X                   ",
"                   .+:5&>-$19<$                   ",
"                   o=19,<%=05>:O                  ",
"                   .:09<;,155:;#                  ",
"                   X*,5<4091--<#                  ",
"                   .%::49901;>;o                  ",
"                    X&;50:4r>-#                   ",
"                .O@@#;0r9-1tr,#oX.                ",
"               +-3q95yairtrtay41,:&O              ",
"              O>eggirttt0rrrttrrhsq:+             ",
"       .+$@X  $6apiippppirtpppiiifh8*   o$=%o     ",
"      .*372=..-5rirtpppiiiiippppptrq,O O;2ww-X    ",
"      O>dr4<-:49titiprtpittiiritpftt5<;=,5ud:o    ",
"      X-est-#905riitpirtpiiittittfft9t>.>iu6%     ",
"       o:73$Orpiiaut4*$$>,,5,=0iuaitpp9+#>>%.     ",
"        X*&&3sshaq9-X     .o.o&:3quhghsq;&+       ",
"         .+=2362;*-%*o.XOX.XXX=$-#-2872-+         ",
"            .ooo.+#><*X;,$X*;;9-$+ o+oX           ",
"                 X*<;O@t4+ *,,14%o                ",
"                 .:>@ ;p1. &:>,<,#                ",
"                 o,<*X5t=  -,>,>>;#               ",
"                 #39i1i4&$@;>,>>;*:+              ",
"                 $50ifi9455,>,,,,,1=.             ",
"                 *99tft5<<t9<<5i046=.             ",
"                 =55tpfi<>004ripfa1@              ",
"                .;44rfffp95494tpa5*               ",
"                .:104pffi15$<r04<%.               ",
"                o>,t45it414%&-%$o                 ",
"                +>:9i114r9:OX                     ",
"                $<<9iirpt0,X                      ",
"                &5r5pfttru<o                      ",
"                *0p<490rt0<+                      ",
"                &5t94rt9r17%                      ",
"                &6999r4t509&                      ",
"                #354,:0i9u<#                      ",
"                .*5914rrr4*.                      ",
"                 .-<:4,&;;.                       ",
"                  +:XX. &&                        ",
"                  .-@ . &%                        ",
"                   %*. .-#                        ",
"                   +:o.X:+                        ",
"                   .-@ X;O                        ",
"                    @=X@=.                        ",
"                     #$$O                         ",
"                      .                           ",
"                                                  "
};
